<svg width="55" height="56" viewBox="0 0 55 56" fill="none" xmlns="http://www.w3.org/2000/svg">
<path d="M40.3245 5.08899C40.9868 4.4267 41.773 3.90134 42.6384 3.54291C43.5037 3.18448 44.4311 3 45.3677 3C46.3044 3 47.2318 3.18448 48.0971 3.54291C48.9625 3.90134 49.7487 4.4267 50.411 5.08899C51.0733 5.75128 51.5987 6.53753 51.9571 7.40286C52.3155 8.26818 52.5 9.19563 52.5 10.1323C52.5 11.0689 52.3155 11.9963 51.9571 12.8616C51.5987 13.727 51.0733 14.5132 50.411 15.1755L16.369 49.2175L2.5 53L6.28245 39.131L40.3245 5.08899Z" stroke="#E757FF" stroke-width="5" stroke-linecap="round" stroke-linejoin="round"/>
</svg>
