<svg width="212" height="1193" viewBox="0 0 212 1193" fill="none" xmlns="http://www.w3.org/2000/svg">
<path d="M125.812 1092.36L75.9687 1083.84L75.9687 1058.61L160.5 1078.53L160.5 1100.8L110.344 1114.78L160.5 1128.84L160.5 1151.11L75.9687 1171.03L75.9687 1145.8L126.984 1137.44L75.9687 1124L75.9687 1105.64L125.812 1092.36ZM162.062 1008.22C162.062 1021.19 158.208 1031.68 150.5 1039.7C142.74 1047.72 132.661 1051.73 120.266 1051.73L118.078 1051.73C109.432 1051.73 101.802 1050.15 95.1875 1046.97C88.5729 1043.74 83.4687 1039.05 79.875 1032.91C76.2292 1026.76 74.4062 1019.47 74.4062 1011.03C74.4062 999.156 78.1041 989.781 85.5 982.906C92.8437 976.031 103.104 972.594 116.281 972.594L126.516 972.594L126.516 1024.94C131.255 1024 134.979 1021.94 137.687 1018.77C140.396 1015.59 141.75 1011.47 141.75 1006.42C141.75 998.089 138.833 991.578 133 986.891L147.219 974.859C151.75 978.141 155.37 982.802 158.078 988.844C160.734 994.833 162.062 1001.29 162.062 1008.22ZM94.7187 1011.19C94.7187 1018.9 99.8229 1023.48 110.031 1024.94L110.031 998.375L108 998.375C103.781 998.271 100.526 999.339 98.2344 1001.58C95.8906 1003.82 94.7187 1007.02 94.7187 1011.19ZM118.937 883.453C132.792 883.453 143.443 886.318 150.891 892.047C158.339 897.776 162.062 905.849 162.062 916.266C162.062 924.859 158.651 931.786 151.828 937.047L160.5 938.141L160.5 961.734L40.5 961.734L40.5 935.406L82.7656 935.406C77.1927 930.51 74.4062 924.182 74.4062 916.422C74.4062 905.901 78.1823 897.776 85.7343 892.047C93.2864 886.318 103.911 883.453 117.609 883.453L118.937 883.453ZM117.297 909.859C109.172 909.859 103.391 910.953 99.9531 913.141C96.4635 915.276 94.7187 918.583 94.7187 923.062C94.7187 929 96.9844 933.115 101.516 935.406L135.109 935.406C139.589 933.167 141.828 929 141.828 922.906C141.828 916.708 138.807 912.776 132.766 911.109C129.797 910.276 124.641 909.859 117.297 909.859ZM136.75 827.516C134.51 827.516 132.714 828.687 131.359 831.031C130.005 833.375 128.599 837.828 127.141 844.391C125.682 850.953 123.781 856.37 121.437 860.641C119.042 864.911 116.151 868.167 112.766 870.406C109.38 872.646 105.5 873.766 101.125 873.766C93.3646 873.766 86.9843 870.562 81.9843 864.156C76.9323 857.75 74.4062 849.365 74.4062 839C74.4062 827.854 76.9323 818.896 81.9843 812.125C87.0364 805.354 93.677 801.969 101.906 801.969L101.906 828.375C95.1354 828.375 91.75 831.943 91.75 839.078C91.75 841.839 92.5312 844.156 94.0937 846.031C95.6041 847.906 97.5052 848.844 99.7968 848.844C102.141 848.844 104.042 847.698 105.5 845.406C106.958 843.115 108.156 839.469 109.094 834.469C110.031 829.417 111.151 824.99 112.453 821.187C116.828 808.479 124.667 802.125 135.969 802.125C143.677 802.125 149.953 805.562 154.797 812.437C159.641 819.26 162.062 828.115 162.062 839C162.062 846.24 160.76 852.698 158.156 858.375C155.552 864.052 152.01 868.479 147.531 871.656C143.052 874.833 138.339 876.422 133.391 876.422L133.391 851.812C137.297 851.708 140.161 850.406 141.984 847.906C143.755 845.406 144.641 842.203 144.641 838.297C144.641 834.703 143.911 832.021 142.453 830.25C140.995 828.427 139.094 827.516 136.75 827.516ZM160.5 761.969L160.5 788.375L75.9687 788.375L75.9687 761.969L160.5 761.969ZM54.1718 789.937C50.4218 789.937 47.3489 788.583 44.9531 785.875C42.5573 783.167 41.3593 779.651 41.3593 775.328C41.3593 771.005 42.5573 767.49 44.9531 764.781C47.3489 762.073 50.4218 760.719 54.1718 760.719C57.9218 760.719 60.9948 762.073 63.3906 764.781C65.7864 767.49 66.9843 771.005 66.9843 775.328C66.9843 779.651 65.7864 783.167 63.3906 785.875C60.9948 788.583 57.9218 789.937 54.1718 789.937ZM54.9531 715.016L75.9687 715.016L75.9687 701.109L94.25 701.109L94.25 715.016L132.922 715.016C136.099 715.016 138.312 714.443 139.562 713.297C140.812 712.151 141.437 709.885 141.437 706.5C141.437 703.896 141.281 701.708 140.969 699.937L159.797 699.937C161.307 704.677 162.062 709.625 162.062 714.781C162.062 723.844 159.927 730.536 155.656 734.859C151.385 739.182 144.901 741.344 136.203 741.344L94.25 741.344L94.25 752.125L75.9687 752.125L75.9687 741.344L54.9531 741.344L54.9531 715.016ZM162.062 649.781C162.062 662.75 158.208 673.245 150.5 681.266C142.74 689.286 132.661 693.297 120.266 693.297L118.078 693.297C109.432 693.297 101.802 691.708 95.1875 688.531C88.5729 685.302 83.4687 680.615 79.875 674.469C76.2291 668.323 74.4062 661.031 74.4062 652.594C74.4062 640.719 78.1041 631.344 85.5 624.469C92.8437 617.594 103.104 614.156 116.281 614.156L126.516 614.156L126.516 666.5C131.255 665.562 134.979 663.505 137.687 660.328C140.396 657.151 141.75 653.036 141.75 647.984C141.75 639.651 138.833 633.141 133 628.453L147.219 616.422C151.75 619.703 155.37 624.365 158.078 630.406C160.734 636.396 162.062 642.854 162.062 649.781ZM94.7187 652.75C94.7187 660.458 99.8229 665.042 110.031 666.5L110.031 639.937L108 639.937C103.781 639.833 100.526 640.901 98.2343 643.141C95.8906 645.38 94.7187 648.583 94.7187 652.75ZM141.75 527.906C141.75 524.208 140.76 521.344 138.781 519.312C136.75 517.281 133.937 516.292 130.344 516.344L130.344 491.656C139.615 491.656 147.219 494.99 153.156 501.656C159.094 508.271 162.062 516.812 162.062 527.281C162.062 539.573 158.208 549.26 150.5 556.344C142.792 563.427 132.115 566.969 118.469 566.969L117.375 566.969C108.833 566.969 101.307 565.406 94.7968 562.281C88.2343 559.104 83.2083 554.547 79.7187 548.609C76.177 542.672 74.4062 535.641 74.4062 527.516C74.4062 516.526 77.4531 507.802 83.5468 501.344C89.6406 494.885 97.8958 491.656 108.312 491.656L108.312 516.344C103.937 516.344 100.578 517.411 98.2343 519.547C95.8906 521.682 94.7187 524.547 94.7187 528.141C94.7187 534.964 99.0677 538.948 107.766 540.094C110.526 540.458 114.328 540.641 119.172 540.641C127.661 540.641 133.547 539.625 136.828 537.594C140.109 535.562 141.75 532.333 141.75 527.906ZM117.453 483.844C109.016 483.844 101.516 482.203 94.9531 478.922C88.3385 475.641 83.2604 470.927 79.7187 464.781C76.177 458.635 74.4062 451.422 74.4062 443.141C74.4062 430.484 78.3385 420.51 86.2031 413.219C94.0156 405.927 104.667 402.281 118.156 402.281L119.094 402.281C132.271 402.281 142.74 405.953 150.5 413.297C158.208 420.589 162.062 430.484 162.062 442.984C162.062 455.016 158.469 464.677 151.281 471.969C144.042 479.26 134.25 483.193 121.906 483.766L117.453 483.844ZM119.094 457.516C126.906 457.516 132.635 456.292 136.281 453.844C139.927 451.396 141.75 447.776 141.75 442.984C141.75 433.609 134.536 428.818 120.109 428.609L117.453 428.609C102.297 428.609 94.7187 433.453 94.7187 443.141C94.7187 451.943 101.255 456.708 114.328 457.437L119.094 457.516ZM75.9687 366.5L85.8906 365.641C78.2343 359.807 74.4062 351.76 74.4062 341.5C74.4062 332.698 77.0364 326.135 82.2968 321.812C87.5572 317.437 95.4739 315.172 106.047 315.016L160.5 315.016L160.5 341.422L107.141 341.422C102.87 341.422 99.7447 342.281 97.7656 344C95.7343 345.719 94.7187 348.844 94.7187 353.375C94.7187 358.531 96.7499 362.359 100.812 364.859L160.5 364.859L160.5 391.187L75.9687 391.187L75.9687 366.5ZM54.953 269.703L75.9687 269.703L75.9687 255.797L94.2499 255.797L94.2499 269.703L132.922 269.703C136.099 269.703 138.312 269.13 139.562 267.984C140.812 266.839 141.437 264.573 141.437 261.187C141.437 258.583 141.281 256.396 140.969 254.625L159.797 254.625C161.307 259.365 162.062 264.312 162.062 269.469C162.062 278.531 159.927 285.224 155.656 289.547C151.385 293.87 144.901 296.031 136.203 296.031L94.2499 296.031L94.2499 306.812L75.9687 306.812L75.9687 296.031L54.953 296.031L54.953 269.703ZM162.062 204.469C162.062 217.437 158.208 227.932 150.5 235.953C142.74 243.974 132.661 247.984 120.266 247.984L118.078 247.984C109.432 247.984 101.802 246.396 95.1874 243.219C88.5728 239.99 83.4687 235.302 79.8749 229.156C76.2291 223.01 74.4062 215.719 74.4062 207.281C74.4062 195.406 78.1041 186.031 85.4999 179.156C92.8437 172.281 103.104 168.844 116.281 168.844L126.516 168.844L126.516 221.187C131.255 220.25 134.979 218.193 137.687 215.016C140.396 211.839 141.75 207.724 141.75 202.672C141.75 194.339 138.833 187.828 133 183.141L147.219 171.109C151.75 174.391 155.37 179.052 158.078 185.094C160.734 191.083 162.062 197.542 162.062 204.469ZM94.7187 207.437C94.7187 215.146 99.8228 219.729 110.031 221.187L110.031 194.625L108 194.625C103.781 194.521 100.526 195.589 98.2343 197.828C95.8905 200.068 94.7187 203.271 94.7187 207.437ZM75.9687 134L85.8905 133.141C78.2343 127.307 74.4062 119.26 74.4062 109C74.4062 100.198 77.0364 93.6354 82.2968 89.3125C87.5572 84.9375 95.4739 82.6719 106.047 82.5156L160.5 82.5156L160.5 108.922L107.141 108.922C102.87 108.922 99.7447 109.781 97.7655 111.5C95.7343 113.219 94.7187 116.344 94.7187 120.875C94.7187 126.031 96.7499 129.859 100.812 132.359L160.5 132.359L160.5 158.687L75.9687 158.687L75.9687 134ZM54.953 37.2031L75.9686 37.2031L75.9686 23.2969L94.2499 23.2969L94.2499 37.2031L132.922 37.2031C136.099 37.2031 138.312 36.6302 139.562 35.4844C140.812 34.3385 141.437 32.0729 141.437 28.6875C141.437 26.0833 141.281 23.8958 140.969 22.125L159.797 22.125C161.307 26.8646 162.062 31.8125 162.062 36.9687C162.062 46.0312 159.927 52.7239 155.656 57.0469C151.385 61.3698 144.901 63.5312 136.203 63.5312L94.2499 63.5312L94.2499 74.3125L75.9687 74.3125L75.9687 63.5312L54.953 63.5312L54.953 37.2031Z" fill="#006DA2" fill-opacity="0.05"/>
</svg>
