<svg width="1271" height="390" viewBox="0 0 1271 390" fill="none" xmlns="http://www.w3.org/2000/svg">
<mask id="mask0" mask-type="alpha" maskUnits="userSpaceOnUse" x="0" y="0" width="1271" height="390">
<rect x="0.5" width="1270" height="390" rx="16" fill="#C4C4C4"/>
</mask>
<g mask="url(#mask0)">
<rect width="1299" height="390" rx="16" transform="matrix(-1 0 0 1 1299.5 0)" fill="#174FA2"/>
<path d="M-79.7984 -8.0162L1298.78 -15.3123L1267.79 703C950.874 650.285 1069.23 462.5 864.284 355.829C542.253 188.219 -131.074 307.914 -79.7984 -8.0162Z" fill="url(#paint0_linear)" style="mix-blend-mode:multiply"/>
<path d="M451.703 1.3152L1292.57 -7.66718L1267.65 568.523C1074.81 526.963 1148.57 376.082 1024.46 290.992C829.453 157.293 417.785 254.823 451.703 1.3152Z" fill="url(#paint1_linear)" style="mix-blend-mode:multiply"/>
<path d="M625 -23.1216L1292.9 -15.3788L1273.27 438.523C1121.56 405.785 1139.34 282.052 1041.71 215.023C888.304 109.702 585.035 131.611 625 -23.1216Z" fill="url(#paint2_linear)" style="mix-blend-mode:multiply"/>
</g>
<g style="mix-blend-mode:multiply" opacity="0.5">
<path d="M68.6154 368.601C56.5855 368.601 45.7477 366.108 36.1021 361.123C26.4565 356.029 18.87 348.985 13.3428 339.989C7.92388 330.886 5.21443 320.59 5.21443 309.102C5.21443 297.614 7.92388 287.372 13.3428 278.377C18.87 269.273 26.4565 262.228 36.1021 257.243C45.7477 252.149 56.5855 249.602 68.6154 249.602C79.67 249.602 89.5323 251.553 98.2026 255.455C106.873 259.356 114.026 264.992 119.661 272.362L95.4389 293.983C88.3944 285.096 80.1035 280.652 70.5662 280.652C62.5463 280.652 56.0978 283.254 51.2208 288.456C46.3438 293.549 43.9053 300.431 43.9053 309.102C43.9053 317.772 46.3438 324.708 51.2208 329.91C56.0978 335.004 62.5463 337.551 70.5662 337.551C80.1035 337.551 88.3944 333.107 95.4389 324.22L119.661 345.842C114.026 353.211 106.873 358.847 98.2026 362.749C89.5323 366.65 79.67 368.601 68.6154 368.601ZM182.33 368.601C170.083 368.601 159.083 366.054 149.329 360.96C139.575 355.867 131.934 348.822 126.407 339.827C120.879 330.723 118.116 320.481 118.116 309.102C118.116 297.722 120.879 287.534 126.407 278.539C131.934 269.435 139.575 262.337 149.329 257.243C159.083 252.149 170.083 249.602 182.33 249.602C194.576 249.602 205.577 252.149 215.331 257.243C225.085 262.337 232.725 269.435 238.252 278.539C243.78 287.534 246.543 297.722 246.543 309.102C246.543 320.481 243.78 330.723 238.252 339.827C232.725 348.822 225.085 355.867 215.331 360.96C205.577 366.054 194.576 368.601 182.33 368.601ZM182.33 337.551C187.098 337.551 191.379 336.413 195.172 334.137C199.074 331.753 202.163 328.447 204.439 324.22C206.715 319.885 207.853 314.846 207.853 309.102C207.853 303.358 206.715 298.372 204.439 294.146C202.163 289.81 199.074 286.505 195.172 284.229C191.379 281.845 187.098 280.652 182.33 280.652C177.561 280.652 173.226 281.845 169.324 284.229C165.531 286.505 162.496 289.81 160.22 294.146C157.945 298.372 156.807 303.358 156.807 309.102C156.807 314.846 157.945 319.885 160.22 324.22C162.496 328.447 165.531 331.753 169.324 334.137C173.226 336.413 177.561 337.551 182.33 337.551ZM366.949 252.203L366.949 366L335.411 366L292.169 314.304L292.169 366L254.778 366L254.778 252.203L286.316 252.203L329.559 303.9L329.559 252.203L366.949 252.203ZM422.175 368.601C412.746 368.601 403.534 367.571 394.539 365.512C385.652 363.345 378.336 360.473 372.592 356.896L384.947 328.935C390.366 332.078 396.435 334.625 403.155 336.575C409.874 338.418 416.323 339.339 422.5 339.339C427.811 339.339 431.604 338.851 433.88 337.876C436.156 336.792 437.294 335.221 437.294 333.162C437.294 330.777 435.776 328.989 432.742 327.797C429.816 326.605 424.939 325.304 418.111 323.895C409.332 322.053 402.017 320.102 396.164 318.043C390.312 315.875 385.218 312.407 380.883 307.639C376.548 302.762 374.38 296.205 374.38 287.968C374.38 280.815 376.385 274.312 380.395 268.46C384.405 262.608 390.366 258.002 398.278 254.642C406.298 251.282 415.998 249.602 427.377 249.602C435.18 249.602 442.821 250.469 450.299 252.203C457.886 253.829 464.551 256.267 470.295 259.519L458.753 287.318C447.59 281.682 437.023 278.864 427.052 278.864C417.19 278.864 412.258 281.249 412.258 286.017C412.258 288.293 413.722 290.027 416.648 291.219C419.574 292.303 424.397 293.495 431.116 294.796C439.786 296.421 447.102 298.318 453.063 300.486C459.023 302.545 464.171 305.959 468.507 310.727C472.95 315.496 475.172 321.999 475.172 330.235C475.172 337.388 473.167 343.891 469.157 349.743C465.147 355.487 459.132 360.093 451.112 363.561C443.2 366.921 433.555 368.601 422.175 368.601ZM535.358 368.601C517.909 368.601 504.308 363.887 494.554 354.458C484.8 345.029 479.923 331.807 479.923 314.791L479.923 252.203L518.289 252.203L518.289 313.654C518.289 321.999 519.752 328.068 522.678 331.861C525.713 335.654 530.048 337.551 535.683 337.551C541.319 337.551 545.6 335.654 548.526 331.861C551.561 328.068 553.078 321.999 553.078 313.654L553.078 252.203L590.794 252.203L590.794 314.791C590.794 331.807 585.917 345.029 576.163 354.458C566.409 363.887 552.807 368.601 535.358 368.601ZM602.69 252.203L641.056 252.203L641.056 336.25L692.427 336.25L692.427 366L602.69 366L602.69 252.203ZM711.408 281.953L678.082 281.953L678.082 252.203L783.1 252.203L783.1 281.953L749.774 281.953L749.774 366H711.408L711.408 281.953Z" fill="#CFE6F9"/>
</g>
<defs>
<linearGradient id="paint0_linear" x1="403.719" y1="501.731" x2="782.371" y2="-213.22" gradientUnits="userSpaceOnUse">
<stop stop-color="#2310FF" stop-opacity="0.16"/>
<stop offset="1" stop-color="#FF3F3F" stop-opacity="0"/>
</linearGradient>
<linearGradient id="paint1_linear" x1="742.336" y1="409.058" x2="1089.43" y2="-88.3469" gradientUnits="userSpaceOnUse">
<stop stop-color="#2310FF" stop-opacity="0.16"/>
<stop offset="1" stop-color="#FF3F3F" stop-opacity="0"/>
</linearGradient>
<linearGradient id="paint2_linear" x1="860.017" y1="312.909" x2="1133.59" y2="-78.5919" gradientUnits="userSpaceOnUse">
<stop stop-color="#2310FF" stop-opacity="0.16"/>
<stop offset="1" stop-color="#FF3F3F" stop-opacity="0"/>
</linearGradient>
</defs>
</svg>
