<svg width="212" height="1351" viewBox="0 0 212 1351" fill="none" xmlns="http://www.w3.org/2000/svg">
<path d="M85.0313 1317.45C77.9479 1311.83 74.4063 1304.64 74.4063 1295.89C74.4063 1286.57 77.1667 1279.54 82.6875 1274.8C88.2083 1270.06 96.3594 1267.64 107.141 1267.53L160.5 1267.53L160.5 1293.94L107.766 1293.94C103.286 1293.94 100.005 1294.85 97.9219 1296.67C95.7865 1298.49 94.7188 1301.59 94.7188 1305.97C94.7188 1311.39 96.4375 1315.21 99.875 1317.45L160.5 1317.45L160.5 1343.78L40.5 1343.78L40.5 1317.45L85.0313 1317.45ZM117.453 1256.2C109.016 1256.2 101.516 1254.56 94.9531 1251.28C88.3386 1248 83.2604 1243.29 79.7188 1237.14C76.1771 1230.99 74.4063 1223.78 74.4063 1215.5C74.4063 1202.84 78.3386 1192.87 86.2031 1185.58C94.0156 1178.29 104.667 1174.64 118.156 1174.64L119.094 1174.64C132.271 1174.64 142.74 1178.31 150.5 1185.66C158.208 1192.95 162.063 1202.84 162.063 1215.34C162.063 1227.38 158.469 1237.04 151.281 1244.33C144.042 1251.62 134.25 1255.55 121.906 1256.13L117.453 1256.2ZM119.094 1229.88C126.906 1229.88 132.635 1228.65 136.281 1226.2C139.927 1223.76 141.75 1220.14 141.75 1215.34C141.75 1205.97 134.536 1201.18 120.109 1200.97L117.453 1200.97C102.297 1200.97 94.7188 1205.81 94.7188 1215.5C94.7188 1224.3 101.255 1229.07 114.328 1229.8L119.094 1229.88ZM75.9688 1138.16L85.8906 1137.3C78.2344 1131.31 74.4063 1123.26 74.4063 1113.16C74.4063 1102.48 78.6511 1095.27 87.1406 1091.52C78.6511 1085.79 74.4063 1077.51 74.4063 1066.67C74.4063 1049.54 84.7709 1040.73 105.5 1040.27L160.5 1040.27L160.5 1066.67L107.141 1066.67C102.818 1066.67 99.6667 1067.4 97.6875 1068.86C95.7084 1070.32 94.7188 1072.97 94.7188 1076.83C94.7188 1082.04 97.0365 1085.92 101.672 1088.47L102.766 1088.39L160.5 1088.39L160.5 1114.8L107.297 1114.8C102.87 1114.8 99.6667 1115.5 97.6875 1116.91C95.7084 1118.31 94.7188 1120.99 94.7188 1124.95C94.7188 1130.01 97.0365 1133.86 101.672 1136.52L160.5 1136.52L160.5 1162.84L75.9688 1162.84L75.9688 1138.16ZM162.063 984.328C162.063 997.297 158.208 1007.79 150.5 1015.81C142.74 1023.83 132.661 1027.84 120.266 1027.84L118.078 1027.84C109.432 1027.84 101.802 1026.26 95.1875 1023.08C88.5729 1019.85 83.4688 1015.16 79.875 1009.02C76.2292 1002.87 74.4063 995.578 74.4063 987.141C74.4063 975.266 78.1042 965.891 85.5 959.016C92.8438 952.141 103.104 948.703 116.281 948.703L126.516 948.703L126.516 1001.05C131.255 1000.11 134.979 998.052 137.688 994.875C140.396 991.698 141.75 987.583 141.75 982.531C141.75 974.198 138.833 967.688 133 963L147.219 950.969C151.75 954.25 155.37 958.911 158.078 964.953C160.734 970.943 162.063 977.401 162.063 984.328ZM94.7188 987.297C94.7188 995.005 99.8229 999.589 110.031 1001.05L110.031 974.484L108 974.484C103.781 974.38 100.526 975.448 98.2344 977.688C95.8907 979.927 94.7188 983.13 94.7188 987.297ZM118.859 859.563C131.984 859.563 142.479 862.531 150.344 868.469C158.156 874.354 162.063 882.323 162.063 892.375C162.063 900.135 159.224 906.516 153.547 911.516L193 911.516L193 937.844L75.9688 937.844L75.9688 913.234L83.7813 912.453C77.5313 907.401 74.4063 900.76 74.4063 892.531C74.4063 882.115 78.2605 874.016 85.9688 868.234C93.625 862.453 104.172 859.563 117.609 859.563L118.859 859.563ZM117.219 885.891C102.219 885.891 94.7188 890.266 94.7188 899.016C94.7188 905.266 96.9584 909.432 101.438 911.516L134.719 911.516C139.406 909.224 141.75 905.005 141.75 898.859C141.75 890.474 134.51 886.151 120.031 885.891L117.219 885.891ZM160.5 800.266C158.781 801.203 156.255 802.036 152.922 802.766C159.016 807.609 162.063 814.38 162.063 823.078C162.063 831.047 159.667 837.818 154.875 843.391C150.031 848.964 143.964 851.75 136.672 851.75C127.505 851.75 120.578 848.365 115.891 841.594C111.203 834.823 108.859 824.979 108.859 812.063L108.859 803.938L104.406 803.938C96.6459 803.938 92.7657 807.297 92.7657 814.016C92.7657 820.266 95.8386 823.391 101.984 823.391L101.984 849.719C93.8073 849.719 87.1667 846.255 82.0625 839.328C76.9584 832.349 74.4063 823.469 74.4063 812.688C74.4063 801.906 77.0365 793.391 82.2969 787.141C87.5573 780.891 94.7709 777.688 103.938 777.531L141.359 777.531C149.12 777.427 155.057 776.229 159.172 773.938L160.5 773.938L160.5 800.266ZM143.313 816.75C143.313 813.469 142.609 810.76 141.203 808.625C139.797 806.438 138.208 804.875 136.438 803.938L122.922 803.938L122.922 811.594C122.922 820.76 127.037 825.344 135.266 825.344C137.662 825.344 139.615 824.536 141.125 822.922C142.583 821.307 143.313 819.25 143.313 816.75ZM117.609 765.969C109.068 765.969 101.516 764.563 94.9532 761.75C88.3907 758.938 83.3386 754.901 79.7969 749.641C76.2032 744.38 74.4063 738.26 74.4063 731.281C74.4063 722.479 77.3751 715.604 83.3126 710.656L75.9688 709.719L75.9688 685.813L157.297 685.813C164.745 685.813 171.203 687.557 176.672 691.047C182.193 694.484 186.412 699.484 189.328 706.047C192.297 712.609 193.781 720.214 193.781 728.859C193.781 735.057 192.609 741.073 190.266 746.906C187.922 752.688 184.875 757.115 181.125 760.188L165.656 749.172C171.438 744.276 174.328 737.818 174.328 729.797C174.328 718.13 168.339 712.297 156.359 712.297L153.703 712.297C159.276 717.349 162.063 723.729 162.063 731.438C162.063 741.75 158.13 750.083 150.266 756.438C142.349 762.792 131.776 765.969 118.547 765.969L117.609 765.969ZM119.25 739.563C126.177 739.563 131.672 738.26 135.734 735.656C139.745 733.052 141.75 729.406 141.75 724.719C141.75 719.042 139.849 714.901 136.047 712.297L100.5 712.297C96.6459 714.849 94.7188 718.938 94.7188 724.563C94.7188 729.25 96.8282 732.922 101.047 735.578C105.214 738.234 111.281 739.563 119.25 739.563ZM162.063 629.953C162.063 642.922 158.208 653.417 150.5 661.438C142.74 669.458 132.662 673.469 120.266 673.469L118.078 673.469C109.432 673.469 101.802 671.88 95.1876 668.703C88.573 665.474 83.4688 660.786 79.8751 654.641C76.2292 648.495 74.4063 641.203 74.4063 632.766C74.4063 620.891 78.1042 611.516 85.5001 604.641C92.8438 597.766 103.104 594.328 116.281 594.328L126.516 594.328L126.516 646.672C131.255 645.734 134.979 643.677 137.688 640.5C140.396 637.323 141.75 633.208 141.75 628.156C141.75 619.823 138.833 613.313 133 608.625L147.219 596.594C151.75 599.875 155.37 604.536 158.078 610.578C160.734 616.568 162.063 623.026 162.063 629.953ZM94.7188 632.922C94.7188 640.63 99.823 645.214 110.031 646.672L110.031 620.109L108 620.109C103.781 620.005 100.526 621.073 98.2344 623.313C95.8907 625.552 94.7188 628.755 94.7188 632.922ZM141.75 508.078C141.75 504.38 140.76 501.516 138.781 499.484C136.75 497.453 133.938 496.464 130.344 496.516L130.344 471.828C139.615 471.828 147.219 475.161 153.156 481.828C159.094 488.443 162.063 496.984 162.063 507.453C162.063 519.745 158.208 529.432 150.5 536.516C142.792 543.599 132.115 547.141 118.469 547.141L117.375 547.141C108.833 547.141 101.307 545.578 94.7969 542.453C88.2344 539.276 83.2084 534.719 79.7188 528.781C76.1772 522.844 74.4063 515.813 74.4063 507.688C74.4063 496.698 77.4532 487.974 83.547 481.516C89.6407 475.057 97.8959 471.828 108.313 471.828L108.313 496.516C103.938 496.516 100.578 497.583 98.2344 499.719C95.8907 501.854 94.7188 504.719 94.7188 508.313C94.7188 515.135 99.0678 519.12 107.766 520.266C110.526 520.63 114.328 520.813 119.172 520.813C127.662 520.813 133.547 519.797 136.828 517.766C140.109 515.734 141.75 512.505 141.75 508.078ZM117.453 464.016C109.016 464.016 101.516 462.375 94.9532 459.094C88.3386 455.813 83.2605 451.099 79.7188 444.953C76.1772 438.807 74.4063 431.594 74.4063 423.313C74.4063 410.656 78.3386 400.682 86.2032 393.391C94.0157 386.099 104.667 382.453 118.156 382.453L119.094 382.453C132.271 382.453 142.74 386.125 150.5 393.469C158.208 400.76 162.063 410.656 162.063 423.156C162.063 435.188 158.469 444.849 151.281 452.141C144.042 459.432 134.25 463.365 121.906 463.938L117.453 464.016ZM119.094 437.688C126.906 437.688 132.635 436.464 136.281 434.016C139.927 431.568 141.75 427.948 141.75 423.156C141.75 413.781 134.537 408.99 120.109 408.781L117.453 408.781C102.297 408.781 94.7188 413.625 94.7188 423.313C94.7188 432.115 101.255 436.88 114.328 437.609L119.094 437.688ZM75.9688 346.672L85.8907 345.813C78.2345 339.979 74.4063 331.932 74.4063 321.672C74.4063 312.87 77.0365 306.307 82.297 301.984C87.5574 297.609 95.4741 295.344 106.047 295.188L160.5 295.188L160.5 321.594L107.141 321.594C102.87 321.594 99.7449 322.453 97.7657 324.172C95.7345 325.891 94.7188 329.016 94.7188 333.547C94.7188 338.703 96.7501 342.531 100.813 345.031L160.5 345.031L160.5 371.359L75.9688 371.359L75.9688 346.672ZM54.9532 249.875L75.9688 249.875L75.9688 235.969L94.2501 235.969L94.2501 249.875L132.922 249.875C136.099 249.875 138.313 249.302 139.563 248.156C140.813 247.01 141.438 244.745 141.438 241.359C141.438 238.755 141.281 236.568 140.969 234.797L159.797 234.797C161.307 239.536 162.063 244.484 162.063 249.641C162.063 258.703 159.927 265.396 155.656 269.719C151.386 274.042 144.901 276.203 136.203 276.203L94.2501 276.203L94.2501 286.984L75.9688 286.984L75.9688 276.203L54.9532 276.203L54.9532 249.875ZM162.063 184.641C162.063 197.609 158.208 208.104 150.5 216.125C142.74 224.146 132.662 228.156 120.266 228.156L118.078 228.156C109.432 228.156 101.802 226.568 95.1876 223.391C88.573 220.161 83.4688 215.474 79.8751 209.328C76.2293 203.182 74.4064 195.891 74.4064 187.453C74.4064 175.578 78.1043 166.203 85.5001 159.328C92.8439 152.453 103.104 149.016 116.281 149.016L126.516 149.016L126.516 201.359C131.255 200.422 134.979 198.365 137.688 195.188C140.396 192.01 141.75 187.896 141.75 182.844C141.75 174.51 138.833 168 133 163.313L147.219 151.281C151.75 154.563 155.37 159.224 158.078 165.266C160.734 171.255 162.063 177.714 162.063 184.641ZM94.7189 187.609C94.7189 195.318 99.823 199.901 110.031 201.359L110.031 174.797L108 174.797C103.781 174.693 100.526 175.76 98.2345 178C95.8907 180.24 94.7189 183.443 94.7189 187.609ZM75.9689 114.172L85.8907 113.313C78.2345 107.479 74.4064 99.4323 74.4064 89.1719C74.4064 80.3698 77.0366 73.8073 82.297 69.4844C87.5574 65.1094 95.4741 62.8438 106.047 62.6875L160.5 62.6875L160.5 89.0938L107.141 89.0938C102.87 89.0938 99.7449 89.9531 97.7657 91.6719C95.7345 93.3906 94.7189 96.5156 94.7189 101.047C94.7189 106.203 96.7501 110.031 100.813 112.531L160.5 112.531L160.5 138.859L75.9689 138.859L75.9689 114.172ZM54.9532 17.375L75.9689 17.375L75.9689 3.46876L94.2501 3.46876L94.2501 17.375L132.922 17.375C136.099 17.375 138.313 16.8021 139.563 15.6563C140.813 14.5104 141.438 12.2448 141.438 8.85939C141.438 6.25522 141.281 4.06772 140.969 2.29689L159.797 2.29689C161.307 7.03647 162.063 11.9844 162.063 17.1406C162.063 26.2031 159.927 32.8958 155.656 37.2188C151.386 41.5417 144.901 43.7031 136.203 43.7031L94.2501 43.7031L94.2501 54.4844L75.9689 54.4844L75.9689 43.7031L54.9532 43.7031L54.9532 17.375Z" fill="#006DA2" fill-opacity="0.05"/>
</svg>
