<svg width="45" height="45" viewBox="0 0 45 45" fill="none" xmlns="http://www.w3.org/2000/svg">
<circle cx="22.5546" cy="22.0546" r="22.0546" fill="url(#paint0_linear)"/>
<g clip-path="url(#clip0)">
<path d="M30.5074 15.394H14.6018C14.3407 15.394 14.0963 15.4582 13.8751 15.564L22.5169 24.2058L24.4538 22.3443C24.4538 22.3443 24.454 22.3441 24.454 22.3441C24.454 22.344 24.4542 22.3439 24.4542 22.3439L31.2343 15.5642C31.0131 15.4583 30.7686 15.394 30.5074 15.394Z" fill="white"/>
<path d="M32.0337 16.3638L25.6532 22.7439L32.0335 29.1241C32.1393 28.903 32.2034 28.6585 32.2034 28.3974V17.0902C32.2034 16.8292 32.1394 16.5848 32.0337 16.3638Z" fill="white"/>
<path d="M13.0756 16.3636C12.9698 16.5847 12.9056 16.8291 12.9056 17.0902V28.3975C12.9056 28.6585 12.9697 28.9029 13.0754 29.124L19.4559 22.7439L13.0756 16.3636Z" fill="white"/>
<path d="M24.8537 23.5434L22.9166 25.4051C22.8061 25.5155 22.6615 25.5707 22.5169 25.5707C22.3722 25.5707 22.2275 25.5155 22.1172 25.4051L20.2554 23.5433L13.8748 29.9235C14.096 30.0294 14.3406 30.0936 14.6017 30.0936H30.5073C30.7684 30.0936 31.0128 30.0294 31.234 29.9236L24.8537 23.5434Z" fill="white"/>
</g>
<defs>
<linearGradient id="paint0_linear" x1="22.5546" y1="0" x2="22.5546" y2="44.1092" gradientUnits="userSpaceOnUse">
<stop stop-color="#FF3A99"/>
<stop offset="1" stop-color="#FF1E6F"/>
</linearGradient>
<clipPath id="clip0">
<rect width="19.2978" height="19.2978" fill="white" transform="translate(12.9057 13.0949)"/>
</clipPath>
</defs>
</svg>
