<svg width="175" height="509" viewBox="0 0 175 509" fill="none" xmlns="http://www.w3.org/2000/svg">
<circle cx="4.02401" cy="39.5236" r="3.52358" fill="url(#paint0_linear)"/>
<circle cx="55.7028" cy="39.5236" r="3.52358" fill="url(#paint1_linear)"/>
<circle cx="107.382" cy="39.5236" r="3.52358" fill="url(#paint2_linear)"/>
<circle cx="159.061" cy="39.5236" r="3.52358" fill="url(#paint3_linear)"/>
<circle cx="4.02358" cy="91.2028" r="3.52358" fill="url(#paint4_linear)"/>
<circle cx="55.7028" cy="91.2028" r="3.52358" fill="url(#paint5_linear)"/>
<circle cx="107.382" cy="91.2028" r="3.52358" fill="url(#paint6_linear)"/>
<circle cx="159.061" cy="91.2028" r="3.52358" fill="url(#paint7_linear)"/>
<circle cx="4.02358" cy="142.882" r="3.52358" fill="url(#paint8_linear)"/>
<circle cx="55.7028" cy="142.882" r="3.52358" fill="url(#paint9_linear)"/>
<circle cx="107.382" cy="142.882" r="3.52358" fill="url(#paint10_linear)"/>
<circle cx="159.061" cy="142.882" r="3.52358" fill="url(#paint11_linear)"/>
<circle cx="4.02358" cy="194.561" r="3.52358" fill="url(#paint12_linear)"/>
<circle cx="55.7028" cy="194.561" r="3.52358" fill="url(#paint13_linear)"/>
<circle cx="107.382" cy="194.561" r="3.52358" fill="url(#paint14_linear)"/>
<circle cx="159.061" cy="194.561" r="3.52358" fill="url(#paint15_linear)"/>
<circle cx="4.02358" cy="246.24" r="3.52358" fill="url(#paint16_linear)"/>
<circle cx="55.7028" cy="246.24" r="3.52358" fill="url(#paint17_linear)"/>
<circle cx="107.382" cy="246.24" r="3.52358" fill="url(#paint18_linear)"/>
<circle cx="159.061" cy="246.24" r="3.52358" fill="url(#paint19_linear)"/>
<circle cx="4.02358" cy="297.92" r="3.52358" fill="url(#paint20_linear)"/>
<circle cx="55.7028" cy="297.92" r="3.52358" fill="url(#paint21_linear)"/>
<circle cx="107.382" cy="297.92" r="3.52358" fill="url(#paint22_linear)"/>
<circle cx="159.061" cy="297.92" r="3.52358" fill="url(#paint23_linear)"/>
<circle cx="4.02358" cy="349.599" r="3.52358" fill="url(#paint24_linear)"/>
<circle cx="55.7028" cy="349.599" r="3.52358" fill="url(#paint25_linear)"/>
<circle cx="107.382" cy="349.599" r="3.52358" fill="url(#paint26_linear)"/>
<circle cx="159.061" cy="349.599" r="3.52358" fill="url(#paint27_linear)"/>
<circle cx="4.02358" cy="401.278" r="3.52358" fill="url(#paint28_linear)"/>
<circle cx="55.7028" cy="401.278" r="3.52358" fill="url(#paint29_linear)"/>
<circle cx="107.382" cy="401.278" r="3.52358" fill="url(#paint30_linear)"/>
<circle cx="159.061" cy="401.278" r="3.52358" fill="url(#paint31_linear)"/>
<circle cx="4.02358" cy="452.957" r="3.52358" fill="url(#paint32_linear)"/>
<circle cx="55.7028" cy="452.957" r="3.52358" fill="url(#paint33_linear)"/>
<circle cx="107.382" cy="452.957" r="3.52358" fill="url(#paint34_linear)"/>
<circle cx="159.061" cy="452.957" r="3.52358" fill="url(#paint35_linear)"/>
<circle cx="4.02358" cy="504.636" r="3.52358" fill="url(#paint36_linear)"/>
<circle cx="55.7028" cy="504.636" r="3.52358" fill="url(#paint37_linear)"/>
<circle cx="107.382" cy="504.636" r="3.52358" fill="url(#paint38_linear)"/>
<circle cx="159.061" cy="504.636" r="3.52358" fill="url(#paint39_linear)"/>
<g filter="url(#filter0_d)">
<path d="M166.5 50.5C166.5 78.3904 143.89 101 116 101C88.1096 101 65.5 78.3904 65.5 50.5C65.5 22.6096 88.1096 0 116 0C143.89 0 166.5 22.6096 166.5 50.5Z" fill="url(#paint40_radial)"/>
</g>
<defs>
<filter id="filter0_d" x="65.5" y="0" width="151.753" height="171.475" filterUnits="userSpaceOnUse" color-interpolation-filters="sRGB">
<feFlood flood-opacity="0" result="BackgroundImageFix"/>
<feColorMatrix in="SourceAlpha" type="matrix" values="0 0 0 0 0 0 0 0 0 0 0 0 0 0 0 0 0 0 127 0"/>
<feOffset dx="25.3767" dy="45.098"/>
<feGaussianBlur stdDeviation="12.6883"/>
<feColorMatrix type="matrix" values="0 0 0 0 0.698039 0 0 0 0 0.74902 0 0 0 0 0.827451 0 0 0 0.6 0"/>
<feBlend mode="normal" in2="BackgroundImageFix" result="effect1_dropShadow"/>
<feBlend mode="normal" in="SourceGraphic" in2="effect1_dropShadow" result="shape"/>
</filter>
<linearGradient id="paint0_linear" x1="-1.26136" y1="34.2871" x2="7.39513" y2="38.9605" gradientUnits="userSpaceOnUse">
<stop stop-color="#9CB6FF"/>
<stop offset="1" stop-color="#86ACFA"/>
</linearGradient>
<linearGradient id="paint1_linear" x1="50.4174" y1="34.2871" x2="59.0739" y2="38.9605" gradientUnits="userSpaceOnUse">
<stop stop-color="#9CB6FF"/>
<stop offset="1" stop-color="#86ACFA"/>
</linearGradient>
<linearGradient id="paint2_linear" x1="102.097" y1="34.2871" x2="110.753" y2="38.9605" gradientUnits="userSpaceOnUse">
<stop stop-color="#9CB6FF"/>
<stop offset="1" stop-color="#86ACFA"/>
</linearGradient>
<linearGradient id="paint3_linear" x1="153.776" y1="34.2871" x2="162.432" y2="38.9605" gradientUnits="userSpaceOnUse">
<stop stop-color="#9CB6FF"/>
<stop offset="1" stop-color="#86ACFA"/>
</linearGradient>
<linearGradient id="paint4_linear" x1="-1.26179" y1="85.9663" x2="7.3947" y2="90.6397" gradientUnits="userSpaceOnUse">
<stop stop-color="#9CB6FF"/>
<stop offset="1" stop-color="#86ACFA"/>
</linearGradient>
<linearGradient id="paint5_linear" x1="50.4174" y1="85.9663" x2="59.0739" y2="90.6397" gradientUnits="userSpaceOnUse">
<stop stop-color="#9CB6FF"/>
<stop offset="1" stop-color="#86ACFA"/>
</linearGradient>
<linearGradient id="paint6_linear" x1="102.097" y1="85.9663" x2="110.753" y2="90.6397" gradientUnits="userSpaceOnUse">
<stop stop-color="#9CB6FF"/>
<stop offset="1" stop-color="#86ACFA"/>
</linearGradient>
<linearGradient id="paint7_linear" x1="153.776" y1="85.9663" x2="162.432" y2="90.6397" gradientUnits="userSpaceOnUse">
<stop stop-color="#9CB6FF"/>
<stop offset="1" stop-color="#86ACFA"/>
</linearGradient>
<linearGradient id="paint8_linear" x1="-1.26179" y1="137.646" x2="7.3947" y2="142.319" gradientUnits="userSpaceOnUse">
<stop stop-color="#9CB6FF"/>
<stop offset="1" stop-color="#86ACFA"/>
</linearGradient>
<linearGradient id="paint9_linear" x1="50.4174" y1="137.646" x2="59.0739" y2="142.319" gradientUnits="userSpaceOnUse">
<stop stop-color="#9CB6FF"/>
<stop offset="1" stop-color="#86ACFA"/>
</linearGradient>
<linearGradient id="paint10_linear" x1="102.097" y1="137.646" x2="110.753" y2="142.319" gradientUnits="userSpaceOnUse">
<stop stop-color="#9CB6FF"/>
<stop offset="1" stop-color="#86ACFA"/>
</linearGradient>
<linearGradient id="paint11_linear" x1="153.776" y1="137.646" x2="162.432" y2="142.319" gradientUnits="userSpaceOnUse">
<stop stop-color="#9CB6FF"/>
<stop offset="1" stop-color="#86ACFA"/>
</linearGradient>
<linearGradient id="paint12_linear" x1="-1.26179" y1="189.325" x2="7.3947" y2="193.998" gradientUnits="userSpaceOnUse">
<stop stop-color="#9CB6FF"/>
<stop offset="1" stop-color="#86ACFA"/>
</linearGradient>
<linearGradient id="paint13_linear" x1="50.4174" y1="189.325" x2="59.0739" y2="193.998" gradientUnits="userSpaceOnUse">
<stop stop-color="#9CB6FF"/>
<stop offset="1" stop-color="#86ACFA"/>
</linearGradient>
<linearGradient id="paint14_linear" x1="102.097" y1="189.325" x2="110.753" y2="193.998" gradientUnits="userSpaceOnUse">
<stop stop-color="#9CB6FF"/>
<stop offset="1" stop-color="#86ACFA"/>
</linearGradient>
<linearGradient id="paint15_linear" x1="153.776" y1="189.325" x2="162.432" y2="193.998" gradientUnits="userSpaceOnUse">
<stop stop-color="#9CB6FF"/>
<stop offset="1" stop-color="#86ACFA"/>
</linearGradient>
<linearGradient id="paint16_linear" x1="-1.26179" y1="241.004" x2="7.3947" y2="245.677" gradientUnits="userSpaceOnUse">
<stop stop-color="#9CB6FF"/>
<stop offset="1" stop-color="#86ACFA"/>
</linearGradient>
<linearGradient id="paint17_linear" x1="50.4174" y1="241.004" x2="59.0739" y2="245.677" gradientUnits="userSpaceOnUse">
<stop stop-color="#9CB6FF"/>
<stop offset="1" stop-color="#86ACFA"/>
</linearGradient>
<linearGradient id="paint18_linear" x1="102.097" y1="241.004" x2="110.753" y2="245.677" gradientUnits="userSpaceOnUse">
<stop stop-color="#9CB6FF"/>
<stop offset="1" stop-color="#86ACFA"/>
</linearGradient>
<linearGradient id="paint19_linear" x1="153.776" y1="241.004" x2="162.432" y2="245.677" gradientUnits="userSpaceOnUse">
<stop stop-color="#9CB6FF"/>
<stop offset="1" stop-color="#86ACFA"/>
</linearGradient>
<linearGradient id="paint20_linear" x1="-1.26179" y1="292.683" x2="7.3947" y2="297.356" gradientUnits="userSpaceOnUse">
<stop stop-color="#9CB6FF"/>
<stop offset="1" stop-color="#86ACFA"/>
</linearGradient>
<linearGradient id="paint21_linear" x1="50.4174" y1="292.683" x2="59.0739" y2="297.356" gradientUnits="userSpaceOnUse">
<stop stop-color="#9CB6FF"/>
<stop offset="1" stop-color="#86ACFA"/>
</linearGradient>
<linearGradient id="paint22_linear" x1="102.097" y1="292.683" x2="110.753" y2="297.356" gradientUnits="userSpaceOnUse">
<stop stop-color="#9CB6FF"/>
<stop offset="1" stop-color="#86ACFA"/>
</linearGradient>
<linearGradient id="paint23_linear" x1="153.776" y1="292.683" x2="162.432" y2="297.356" gradientUnits="userSpaceOnUse">
<stop stop-color="#9CB6FF"/>
<stop offset="1" stop-color="#86ACFA"/>
</linearGradient>
<linearGradient id="paint24_linear" x1="-1.26179" y1="344.362" x2="7.3947" y2="349.036" gradientUnits="userSpaceOnUse">
<stop stop-color="#9CB6FF"/>
<stop offset="1" stop-color="#86ACFA"/>
</linearGradient>
<linearGradient id="paint25_linear" x1="50.4174" y1="344.362" x2="59.0739" y2="349.036" gradientUnits="userSpaceOnUse">
<stop stop-color="#9CB6FF"/>
<stop offset="1" stop-color="#86ACFA"/>
</linearGradient>
<linearGradient id="paint26_linear" x1="102.097" y1="344.362" x2="110.753" y2="349.036" gradientUnits="userSpaceOnUse">
<stop stop-color="#9CB6FF"/>
<stop offset="1" stop-color="#86ACFA"/>
</linearGradient>
<linearGradient id="paint27_linear" x1="153.776" y1="344.362" x2="162.432" y2="349.036" gradientUnits="userSpaceOnUse">
<stop stop-color="#9CB6FF"/>
<stop offset="1" stop-color="#86ACFA"/>
</linearGradient>
<linearGradient id="paint28_linear" x1="-1.26179" y1="396.042" x2="7.3947" y2="400.715" gradientUnits="userSpaceOnUse">
<stop stop-color="#9CB6FF"/>
<stop offset="1" stop-color="#86ACFA"/>
</linearGradient>
<linearGradient id="paint29_linear" x1="50.4174" y1="396.042" x2="59.0739" y2="400.715" gradientUnits="userSpaceOnUse">
<stop stop-color="#9CB6FF"/>
<stop offset="1" stop-color="#86ACFA"/>
</linearGradient>
<linearGradient id="paint30_linear" x1="102.097" y1="396.042" x2="110.753" y2="400.715" gradientUnits="userSpaceOnUse">
<stop stop-color="#9CB6FF"/>
<stop offset="1" stop-color="#86ACFA"/>
</linearGradient>
<linearGradient id="paint31_linear" x1="153.776" y1="396.042" x2="162.432" y2="400.715" gradientUnits="userSpaceOnUse">
<stop stop-color="#9CB6FF"/>
<stop offset="1" stop-color="#86ACFA"/>
</linearGradient>
<linearGradient id="paint32_linear" x1="-1.26179" y1="447.721" x2="7.3947" y2="452.394" gradientUnits="userSpaceOnUse">
<stop stop-color="#9CB6FF"/>
<stop offset="1" stop-color="#86ACFA"/>
</linearGradient>
<linearGradient id="paint33_linear" x1="50.4174" y1="447.721" x2="59.0739" y2="452.394" gradientUnits="userSpaceOnUse">
<stop stop-color="#9CB6FF"/>
<stop offset="1" stop-color="#86ACFA"/>
</linearGradient>
<linearGradient id="paint34_linear" x1="102.097" y1="447.721" x2="110.753" y2="452.394" gradientUnits="userSpaceOnUse">
<stop stop-color="#9CB6FF"/>
<stop offset="1" stop-color="#86ACFA"/>
</linearGradient>
<linearGradient id="paint35_linear" x1="153.776" y1="447.721" x2="162.432" y2="452.394" gradientUnits="userSpaceOnUse">
<stop stop-color="#9CB6FF"/>
<stop offset="1" stop-color="#86ACFA"/>
</linearGradient>
<linearGradient id="paint36_linear" x1="-1.26179" y1="499.4" x2="7.3947" y2="504.073" gradientUnits="userSpaceOnUse">
<stop stop-color="#9CB6FF"/>
<stop offset="1" stop-color="#86ACFA"/>
</linearGradient>
<linearGradient id="paint37_linear" x1="50.4174" y1="499.4" x2="59.0739" y2="504.073" gradientUnits="userSpaceOnUse">
<stop stop-color="#9CB6FF"/>
<stop offset="1" stop-color="#86ACFA"/>
</linearGradient>
<linearGradient id="paint38_linear" x1="102.097" y1="499.4" x2="110.753" y2="504.073" gradientUnits="userSpaceOnUse">
<stop stop-color="#9CB6FF"/>
<stop offset="1" stop-color="#86ACFA"/>
</linearGradient>
<linearGradient id="paint39_linear" x1="153.776" y1="499.4" x2="162.432" y2="504.073" gradientUnits="userSpaceOnUse">
<stop stop-color="#9CB6FF"/>
<stop offset="1" stop-color="#86ACFA"/>
</linearGradient>
<radialGradient id="paint40_radial" cx="0" cy="0" r="1" gradientUnits="userSpaceOnUse" gradientTransform="translate(138.117 11.427) rotate(103.87) scale(92.2631)">
<stop stop-color="#62D0FF"/>
<stop offset="1" stop-color="#3071AD"/>
</radialGradient>
</defs>
</svg>
