<svg width="37" height="38" viewBox="0 0 37 38" fill="none" xmlns="http://www.w3.org/2000/svg">
<path d="M9.99995 35.9998H4.89998C3.99825 35.9998 3.13345 35.6416 2.49583 35.004C1.85821 34.3663 1.5 33.5015 1.5 32.5998V20.6999C1.5 19.7981 1.85821 18.9334 2.49583 18.2957C3.13345 17.6581 3.99825 17.2999 4.89998 17.2999H9.99995M21.8999 13.8999V7.09997C21.8999 5.74737 21.3626 4.45018 20.4061 3.49375C19.4497 2.53732 18.1525 2 16.7999 2L9.99995 17.2999V35.9998H29.1758C29.9958 36.0091 30.7915 35.7217 31.4163 35.1906C32.041 34.6595 32.4529 33.9205 32.5758 33.1098L34.9218 17.8099C34.9957 17.3226 34.9629 16.8251 34.8255 16.3517C34.688 15.8784 34.4494 15.4406 34.126 15.0687C33.8025 14.6968 33.4021 14.3996 32.9525 14.1978C32.5028 13.996 32.0146 13.8943 31.5218 13.8999H21.8999Z" stroke="url(#paint0_linear)" stroke-width="3" stroke-linecap="round" stroke-linejoin="round"/>
<defs>
<linearGradient id="paint0_linear" x1="18.2301" y1="2" x2="18.2301" y2="36" gradientUnits="userSpaceOnUse">
<stop stop-color="#FF3A99"/>
<stop offset="1" stop-color="#FF1E6F"/>
</linearGradient>
</defs>
</svg>
